<svg width="76" height="76" viewBox="0 0 76 76" fill="none" xmlns="http://www.w3.org/2000/svg">
<path fill-rule="evenodd" clip-rule="evenodd" d="M30.2573 45.6655C32.1767 43.2948 35.1459 41.9332 38.1635 41.7298C40.968 41.6156 43.8249 41.6562 46.5539 42.4C46.532 43.4988 46.5348 44.5982 46.5376 45.6976C46.5397 46.5496 46.5418 47.4015 46.5325 48.2531C44.311 47.6314 41.9946 47.1917 39.68 47.4512C38.2739 47.641 36.8755 48.3654 36.1608 49.6302C35.6611 50.4785 35.5488 51.474 35.4752 52.4366C37.1447 51.1312 39.3663 50.8233 41.4271 50.9492C44.036 51.1177 46.5112 52.7001 47.7121 55.0281C48.6108 56.7635 48.7677 58.8011 48.4907 60.7147C48.1963 62.7425 47.1078 64.66 45.4557 65.886C43.0249 67.7822 39.773 68.34 36.769 67.9507C34.1465 67.6311 31.6906 66.2385 30.0637 64.1622C28.1578 61.8593 27.3056 58.8398 27.2494 55.8823C27.172 52.2953 27.8867 48.4778 30.2573 45.6655ZM40.5281 56.9475C39.8793 55.8416 38.3957 55.4871 37.2316 55.9133C36.3446 56.2309 35.8022 57.1238 35.6357 58.0108C35.3626 59.2717 35.4459 60.7379 36.331 61.747C37.3575 62.9866 39.5965 62.8239 40.4255 61.4371C41.266 60.122 41.3203 58.2994 40.5281 56.9475Z" fill="#07855F"/>
<path d="M8.32464 42.6963C11.0013 41.7085 13.9085 41.664 16.7286 41.6969C19.2852 41.8054 21.9309 42.5472 23.8755 44.2748C26.4476 46.5274 26.5541 51.1506 23.8484 53.3334C23.1569 53.9164 22.3357 54.3212 21.4796 54.6001C22.7211 55.0359 23.9588 55.6305 24.8148 56.6667C26.1881 58.253 26.4069 60.5462 25.9111 62.5198C25.4637 64.3288 24.104 65.7969 22.4674 66.6298C19.4963 68.2412 15.9829 68.2083 12.7096 67.8906C11.1737 67.7454 9.66105 67.4374 8.17357 67.0365C8.13815 65.9064 8.14321 64.7751 8.14827 63.6443C8.15206 62.7963 8.15586 61.9486 8.14258 61.102C10.6953 61.9484 13.494 62.5101 16.1572 61.871C17.943 61.4216 18.034 58.6461 16.44 57.8888C14.8413 57.0932 12.9829 57.3435 11.2666 57.5747L11.2656 57.5749C11.1732 57.5873 11.0812 57.5997 10.9897 57.6119C10.9959 56.4117 10.995 55.2108 10.994 54.009C10.9934 53.3412 10.9929 52.6731 10.9936 52.0047L11.1612 52.0127C12.497 52.0765 13.8438 52.1407 15.1675 51.9195C16.0003 51.7723 16.9435 51.354 17.1721 50.4591C17.2999 49.7425 17.2225 48.9271 16.7266 48.3615C16.163 47.703 15.2721 47.4435 14.4334 47.3931C12.3726 47.2866 10.2983 47.6449 8.36918 48.3615C8.33363 47.3732 8.33803 46.3827 8.34244 45.3918C8.34643 44.4933 8.35043 43.5943 8.32464 42.6963Z" fill="#07855F"/>
<path d="M66.5555 42.1288C61.1711 42.1269 55.7848 42.1269 50.3985 42.1288V42.1343C50.3965 46.7693 50.3946 51.4081 50.4004 56.045C50.383 56.2619 50.3423 56.4769 50.2823 56.688C50.4914 56.5311 50.72 56.38 50.9834 56.3297C52.2191 56.0372 53.4916 55.8687 54.7621 55.8881C55.8971 55.9365 57.1038 56.107 58.0354 56.8081C59.5868 58.0051 59.2943 60.949 57.3265 61.5591C54.9616 62.3203 52.4438 61.7451 50.1079 61.1563C50.1138 61.8922 50.1111 62.628 50.1083 63.3639C50.1039 64.5746 50.0994 65.7852 50.1331 66.9958C53.7724 67.9991 57.6693 68.5007 61.3822 67.5749C63.4392 67.0423 65.4515 65.8938 66.5439 64.015C67.706 62.0104 67.8377 59.539 67.338 57.3136C66.8131 55.003 65.0622 52.9867 62.8078 52.2313C61.5597 51.7837 60.2377 51.8445 58.93 51.9047C58.5857 51.9205 58.2424 51.9363 57.9018 51.9428C57.9366 50.6431 57.9308 49.3397 57.9037 48.042C59.6665 47.9969 61.4315 48.0034 63.1964 48.0099C64.315 48.014 65.4336 48.0181 66.5517 48.009C66.5534 47.118 66.5532 46.2269 66.5529 45.3358C66.5527 44.2668 66.5524 43.1978 66.5555 42.1288Z" fill="#07855F"/>
<path fill-rule="evenodd" clip-rule="evenodd" d="M8.14459 8.14515C8.14258 17.664 8.14258 27.1828 8.14258 36.7016H16.092C16.0992 36.3409 16.1103 35.9804 16.1214 35.6199C16.1476 34.7678 16.1738 33.9158 16.1484 33.0619C16.7057 34.2128 17.3093 35.43 18.4018 36.1644C19.9933 37.259 22.0818 37.3173 23.9107 36.9089C25.7437 36.5024 27.2909 35.2087 28.1762 33.573C29.4759 31.2471 29.7274 28.5047 29.6852 25.8871C29.6107 23.2775 29.0031 20.5291 27.2144 18.5352C25.4358 16.5453 22.4339 16.0021 19.9511 16.7827C18.5668 17.2113 17.5065 18.2615 16.6936 19.4184C16.7043 17.6088 16.7028 15.7997 16.7013 13.9906C16.6998 12.0423 16.6982 10.094 16.7117 8.14515C13.8547 8.14112 10.9996 8.14313 8.14459 8.14515ZM20.251 23.2996C19.8869 22.531 18.9352 22.1326 18.1324 22.3921C17.4523 22.5531 16.9916 23.1668 16.7964 23.8086C16.4946 24.792 16.4946 25.835 16.4946 26.8548V26.8749C16.5007 27.9372 16.559 29.0801 17.1364 30.0076C17.7441 31.0056 19.3979 31.0036 20.0277 30.0318C20.6776 29.0499 20.7339 27.8185 20.7742 26.6797C20.7732 26.6111 20.7723 26.5422 20.7715 26.4731C20.7583 25.398 20.7445 24.2751 20.251 23.2996Z" fill="#07855F"/>
<path d="M59.4109 10.881C58.0009 11.3669 56.5908 11.8528 55.1713 12.31C55.1249 13.2639 55.1317 14.221 55.1385 15.1782C55.1426 15.7554 55.1467 16.3327 55.1392 16.9095C54.8527 16.9095 54.5664 16.9098 54.2803 16.9101C53.5656 16.9109 52.8512 16.9118 52.1372 16.9075C52.1372 17.4491 52.1353 17.9905 52.1333 18.5319C52.1284 19.8849 52.1234 21.2371 52.1493 22.5894C52.8882 22.5655 53.6271 22.5671 54.3668 22.5687C54.6241 22.5692 54.8816 22.5698 55.1392 22.5693C55.14 23.5407 55.1395 24.5122 55.139 25.4838V25.4963C55.1383 26.9594 55.1375 28.4228 55.1412 29.8869C55.2035 31.5388 55.455 33.2691 56.3846 34.6796C57.2155 35.9833 58.6642 36.7942 60.1772 37.0155C62.6802 37.3777 65.2173 36.8525 67.6056 36.1101C67.6052 35.7557 67.6046 35.4012 67.604 35.0467V35.0452C67.6015 33.5083 67.5989 31.9706 67.6136 30.4342C66.7686 30.6877 65.8591 30.8628 64.9859 30.6736C64.1208 30.3276 63.7445 29.3417 63.7224 28.4705C63.6948 27.4373 63.6991 26.404 63.7035 25.3708V25.3702C63.7073 24.4459 63.7112 23.5217 63.6922 22.5974C64.4799 22.5584 65.2699 22.5637 66.0598 22.569C66.5732 22.5725 67.0867 22.576 67.5995 22.5672C67.604 21.7303 67.6037 20.8933 67.6034 20.0562V20.0534C67.603 19.0058 67.6027 17.9579 67.6116 16.9095C66.9592 16.9095 66.3073 16.91 65.6559 16.9105C65.0056 16.911 64.3557 16.9115 63.7063 16.9115C63.7069 16.1382 63.7058 15.3647 63.7047 14.5911V14.5892C63.7022 12.8697 63.6997 11.1498 63.7164 9.43082C62.2748 9.8941 60.8429 10.3876 59.4109 10.881Z" fill="#07855F"/>
<path fill-rule="evenodd" clip-rule="evenodd" d="M33.7092 19.2736C35.8882 17.0865 39.1276 16.4447 42.1114 16.4588C44.3688 16.3944 46.7551 16.9618 48.4512 18.5271C50.2097 20.1508 51.0246 22.5371 51.3445 24.8549C51.5437 26.1387 51.5383 27.4394 51.5329 28.7353V28.736C51.5326 28.8141 51.5323 28.8922 51.532 28.9703C51.5319 29.0096 51.5317 29.0489 51.5316 29.0882H39.6346C39.699 29.7863 39.8418 30.5268 40.375 31.0278C41.3207 31.9231 42.6989 32.0438 43.9363 32.1263C46.1032 32.1625 48.3506 31.9291 50.2842 30.8748C50.2759 31.7554 50.2761 32.6365 50.2764 33.5178C50.2766 34.3442 50.2769 35.1708 50.2701 35.9974C47.8476 36.8485 45.2662 37.094 42.715 37.1402C39.8217 37.1926 36.7131 36.6815 34.4516 34.7419C32.3451 32.9613 31.4115 30.1666 31.2888 27.4806C31.1016 24.5974 31.6026 21.4103 33.7092 19.2736ZM40.4011 21.7726C41.0852 20.7827 42.7733 20.7203 43.4533 21.7484C44.065 22.68 44.1032 23.847 44.1233 24.9234C42.6324 24.9254 41.1435 24.9254 39.6526 24.9254C39.6929 23.847 39.7532 22.686 40.4011 21.7726Z" fill="#07855F"/>
</svg>
